PathFileType	4	(X/Y/Z)	1H_nor_slow_left.trc
DataRate	CameraRate	NumFrames	NumMarkers	Units	OrigDataRate	OrigDataStartFrame	OrigNumFrames
250.00	250.00	8	18	mm	250.00	7681	20480
Frame#	Time	c7	r_should	l_should	clavicle	r_upa	r_elb_l	r_elb_m	r_low	r_wri_l	r_wri_m	r_met	l_upa	l_elb_l	l_elb_m	l_low	l_wri_l	l_wri_m	l_met
	X1	Y1	Z1	X2	Y2	Z2	X3	Y3	Z3	X4	Y4	Z4	X5	Y5	Z5	X6	Y6	Z6	X7	Y7	Z7	X8	Y8	Z8	X9	Y9	Z9	X10	Y10	Z10	X11	Y11	Z11	X12	Y12	Z12	X13	Y13	Z13	X14	Y14	Z14	X15	Y15	Z15	X16	Y16	Z16	X17	Y17	Z17	X18	Y18	Z18
7681	30.72000	1179.72852	1423.47693	166.03384	1216.34875	1358.55457	338.34094	1224.33044	1366.01086	4.16626	1309.72766	1296.45288	174.82460	1220.78296	1154.52319	415.53113	1215.01428	1071.95325	442.58691	1168.40381	1037.06213	377.93338	1259.35925	951.50708	432.60660	1309.19287	840.68439	409.46490	1238.52844	822.93860	438.35086	1329.62195	774.32141	448.12811	1280.16418	1173.52026	-74.21528	1307.65796	1118.87964	-93.42278	1259.16089	1067.77197	-11.04214	1358.09827	1159.32129	-21.73092	1375.11096	1233.18286	48.20975	1387.32715	1179.01013	96.68738	1438.14636	1271.34924	97.71685
7682	30.72400	1179.67078	1423.47339	166.00771	1216.48193	1358.38379	338.41855	1224.24170	1366.04028	4.15236	1309.67981	1296.46545	174.78633	1220.81165	1154.53271	415.50925	1215.05554	1071.96521	442.57700	1168.42542	1037.06750	377.94504	1259.40344	951.52502	432.57791	1309.25244	840.70294	409.42108	1238.60156	822.93701	438.32611	1329.70068	774.33411	448.07010	1280.25427	1173.41492	-74.29414	1307.64917	1118.92432	-93.46465	1259.16394	1067.79358	-11.10147	1358.08044	1159.35046	-21.74013	1375.09412	1233.18811	48.21780	1387.23059	1179.00146	96.72357	1438.09900	1271.33374	97.79469
7683	30.72800	1179.61560	1423.47217	165.98013	1216.22144	1358.61987	338.25259	1224.15344	1366.06567	4.13699	1309.63586	1296.47400	174.74953	1220.83997	1154.53992	415.48581	1215.10120	1071.96826	442.55499	1168.45703	1037.04761	377.95636	1259.44922	951.54309	432.55005	1309.31226	840.72229	409.36871	1238.67175	822.94910	438.31442	1329.78394	774.34314	448.00800	1279.98914	1173.77661	-74.24994	1307.63611	1118.96423	-93.49884	1259.14722	1067.80310	-11.16265	1358.49353	1158.56592	-21.18520	1375.07190	1233.18921	48.21608	1387.12476	1179.00549	96.75091	1438.05115	1271.30652	97.86917
7684	30.73200	1179.55981	1423.47424	165.95830	1216.13293	1358.67615	338.19006	1224.07239	1366.08765	4.12721	1309.59521	1296.48096	174.70840	1220.86511	1154.55176	415.45767	1215.14539	1071.96838	442.53854	1168.47046	1037.03931	377.96445	1259.49902	951.55292	432.51968	1309.36938	840.74335	409.32413	1238.75232	822.94928	438.30441	1329.86670	774.35333	447.94315	1279.89868	1173.90747	-74.25935	1307.62598	1119.00854	-93.53358	1259.10803	1067.82532	-11.21772	1359.01062	1157.57544	-20.48192	1375.04724	1233.17737	48.22153	1387.03308	1178.97852	96.77812	1438.00146	1271.28174	97.95076
7685	30.73600	1179.50562	1423.47717	165.93631	1216.08569	1358.69006	338.15701	1223.99255	1366.11499	4.11444	1309.55200	1296.49731	174.66902	1220.89319	1154.55457	415.42752	1215.17749	1071.97424	442.52646	1168.49646	1037.02820	377.95895	1259.55188	951.55939	432.48950	1309.43091	840.76794	409.28342	1238.82629	822.95026	438.28256	1329.95166	774.37000	447.88385	1279.85059	1173.97766	-74.28177	1307.62000	1119.04333	-93.56087	1259.07996	1067.84802	-11.27105	1358.23853	1158.95923	-21.43835	1375.02148	1233.16602	48.25356	1386.96545	1178.94678	96.80315	1437.95520	1271.25415	98.03492
7686	30.74000	1179.44910	1423.47449	165.91563	1216.04773	1358.69080	338.12408	1223.91479	1366.14050	4.09835	1309.50757	1296.50854	174.62236	1220.91479	1154.55652	415.40277	1215.21167	1071.97461	442.50473	1168.52014	1037.00720	377.95758	1259.59924	951.57379	432.45505	1309.48657	840.77869	409.23758	1238.90381	822.95856	438.26675	1330.03735	774.38843	447.83340	1279.81287	1174.02771	-74.29613	1307.61169	1119.08057	-93.58040	1259.07019	1067.86804	-11.30906	1358.02405	1159.32434	-21.67502	1374.99097	1233.17273	48.29243	1386.90454	1178.92334	96.83018	1437.91003	1271.21924	98.11675
7687	30.74400	1179.39404	1423.46997	165.90475	1216.01831	1358.68030	338.09543	1223.83276	1366.16138	4.08004	1309.46350	1296.50952	174.58006	1220.93030	1154.54956	415.37866	1215.24524	1071.97168	442.49472	1168.50732	1036.99609	377.96561	1259.64209	951.57611	432.42944	1309.54004	840.79053	409.19598	1238.98267	822.95190	438.25134	1330.12329	774.40741	447.78699	1279.77539	1174.06848	-74.31364	1307.59924	1119.11755	-93.59645	1259.02795	1067.87781	-11.35734	1357.94067	1159.41113	-21.73068	1374.95227	1233.16858	48.32819	1386.81543	1178.90137	96.85310	1437.86169	1271.18115	98.20898
7688	30.74800	1179.33643	1423.46008	165.89484	1215.98767	1358.66711	338.07755	1223.74622	1366.18188	4.06514	1309.41748	1296.51038	174.53828	1220.94409	1154.54041	415.35416	1215.27222	1071.97253	442.48419	1168.58826	1036.97791	377.95465	1259.68567	951.58008	432.41144	1309.59290	840.80341	409.15942	1239.06055	822.93781	438.23666	1330.20715	774.42029	447.74451	1279.74231	1174.09863	-74.32214	1307.58789	1119.14368	-93.60867	1258.98413	1067.89062	-11.40595	1357.89368	1159.43127	-21.72783	1374.91833	1233.15491	48.37035	1386.76611	1178.88098	96.89400	1437.81213	1271.13391	98.29791
